<svg id="Line" height="512" viewBox="0 0 64 64" width="512" xmlns="http://www.w3.org/2000/svg"><path d="m39 14a24 24 0 1 0 24 24 24.028 24.028 0 0 0 -24-24zm13.715 13.029-12 20a2 2 0 0 1 -3.379.08l-5.781-8.671a5.464 5.464 0 0 0 -4.555-2.438 2 2 0 0 1 0-4 9.459 9.459 0 0 1 7.883 4.218l4.028 6.043 10.374-17.29a2 2 0 1 1 3.43 2.058z" fill="#c4a2fc"/><g fill="#151a6a"><circle cx="22" cy="7" r="1.5"/><path d="m40 6h-10.22l-.431-1.728a3 3 0 0 0 -2.911-2.272h-8.876a3 3 0 0 0 -2.911 2.272l-.431 1.728h-10.22a3 3 0 0 0 -3 3v40a3 3 0 0 0 3 3h36a3 3 0 0 0 3-3v-40a3 3 0 0 0 -3-3zm-22.438-2h8.876a1 1 0 0 1 .971.758l1.311 5.242h-13.44l1.311-5.242a1 1 0 0 1 .971-.758zm23.438 45a1 1 0 0 1 -1 1h-36a1 1 0 0 1 -1-1v-40a1 1 0 0 1 1-1h9.72l-.69 2.757a1 1 0 0 0 .97 1.243h16a1 1 0 0 0 .97-1.243l-.69-2.757h9.72a1 1 0 0 1 1 1z"/><path d="m16.485 17.126a1 1 0 0 0 -1.359.388l-4.251 7.653-2.075-2.767a1 1 0 1 0 -1.6 1.2l3 4a1 1 0 0 0 1.674-.114l5-9a1 1 0 0 0 -.389-1.36z"/><path d="m16.485 33.126a1 1 0 0 0 -1.359.388l-4.251 7.653-2.075-2.767a1 1 0 0 0 -1.6 1.2l3 4a1 1 0 0 0 1.674-.114l5-9a1 1 0 0 0 -.389-1.36z"/><path d="m34 20h-12a3 3 0 0 0 0 6h12a3 3 0 0 0 0-6zm0 4h-12a1 1 0 0 1 0-2h12a1 1 0 0 1 0 2z"/><path d="m34 36h-12a3 3 0 0 0 0 6h12a3 3 0 0 0 0-6zm0 4h-12a1 1 0 0 1 0-2h12a1 1 0 0 1 0 2z"/></g></svg>