<svg id="Icons" height="512" viewBox="0 0 74 74" width="512" xmlns="http://www.w3.org/2000/svg"><path d="m71 72h-17a1 1 0 0 1 0-2h16v-16a1 1 0 0 1 2 0v17a1 1 0 0 1 -1 1z"/><path d="m20 72h-17a1 1 0 0 1 -1-1v-17a1 1 0 0 1 2 0v16h16a1 1 0 0 1 0 2z"/><path d="m3 21a1 1 0 0 1 -1-1v-17a1 1 0 0 1 1-1h17a1 1 0 0 1 0 2h-16v16a1 1 0 0 1 -1 1z"/><path d="m71 21a1 1 0 0 1 -1-1v-16h-16a1 1 0 0 1 0-2h17a1 1 0 0 1 1 1v17a1 1 0 0 1 -1 1z"/><path d="m27.97 56.33a1 1 0 0 1 -.707-.293l-9.29-9.29a1.01 1.01 0 0 1 -.222-1.095 1.021 1.021 0 0 1 .267-.374l31.714-31.725a2.006 2.006 0 0 1 2.835 0l7.88 7.88a2.007 2.007 0 0 1 0 2.834l-13.3 13.31a1 1 0 1 1 -1.415-1.414l13.3-13.31-7.88-7.886-31.063 31.068 7.882 7.882 5.8-5.794a1 1 0 1 1 1.414 1.415l-6.51 6.5a1 1 0 0 1 -.705.292z"/><path d="m39.43 44.88a1 1 0 0 1 -.707-1.707l2.06-2.06a1 1 0 0 1 1.417 1.414l-2.06 2.06a1 1 0 0 1 -.71.293z"/><path d="m13.961 61.039a1 1 0 0 1 -.948-1.319l4.717-14.009a1 1 0 0 1 1.655-.388l9.292 9.292a1 1 0 0 1 -.388 1.655l-14.009 4.717a1 1 0 0 1 -.319.052zm5.15-13.162-3.559 10.571 10.571-3.559z"/><path d="m51.971 32.321a.993.993 0 0 1 -.707-.293l-9.292-9.292a1 1 0 0 1 1.414-1.414l9.292 9.292a1 1 0 0 1 -.707 1.707z"/><path d="m23.324 51.676a1 1 0 0 1 -.707-1.707l24-24a1 1 0 1 1 1.414 1.414l-24 24a1 1 0 0 1 -.707.293z"/></svg>